<svg width="60" height="60" viewBox="0 0 60 60" fill="none" xmlns="http://www.w3.org/2000/svg">
<g clip-path="url(#clip0_308_17)">
<path d="M30 60C46.5685 60 60 46.5685 60 30C60 13.4315 46.5685 0 30 0C13.4315 0 0 13.4315 0 30C0 46.5685 13.4315 60 30 60Z" fill="#0091E2"/>
<path d="M48.4746 27.041C48.3808 26.9648 47.5312 26.3262 45.7382 26.3262C45.2636 26.3262 44.789 26.3613 44.3203 26.4492C43.9746 24.0645 42.0058 22.9043 41.9179 22.8516L41.4375 22.5703L41.121 23.0273C40.7226 23.6426 40.4355 24.3164 40.2656 25.0313C39.9433 26.3906 40.1367 27.668 40.8281 28.7578C39.996 29.2207 38.6542 29.3379 38.3847 29.3437H16.2304C15.6503 29.3437 15.1816 29.8125 15.1816 30.3926C15.1582 32.332 15.4863 34.2598 16.1484 36.082C16.9101 38.0859 18.0468 39.5566 19.5234 40.459C21.1757 41.4727 23.8652 42.0527 26.9179 42.0527C28.2949 42.0586 29.6718 41.9297 31.0253 41.6777C32.9062 41.332 34.7168 40.6758 36.3808 39.7324C37.7519 38.9355 38.9882 37.9277 40.0371 36.7383C41.789 34.752 42.8378 32.5371 43.6171 30.5742H43.9277C45.8496 30.5742 47.0332 29.8066 47.6835 29.1621C48.1171 28.752 48.457 28.2539 48.6738 27.6973L48.8085 27.293L48.4746 27.041ZM18.2812 28.7051H21.2519C21.3925 28.7051 21.5097 28.5879 21.5097 28.4473V25.8047C21.5097 25.6641 21.3925 25.5469 21.2519 25.541H18.2812C18.1406 25.541 18.0234 25.6582 18.0234 25.7988V28.4473C18.0234 28.5938 18.1406 28.7051 18.2812 28.7051ZM22.3769 28.7051H25.3476C25.4882 28.7051 25.6054 28.5879 25.6054 28.4473V25.8047C25.6054 25.6641 25.4882 25.5469 25.3476 25.541H22.3769C22.2304 25.541 22.1132 25.6582 22.1132 25.8047V28.4473C22.1132 28.5938 22.2304 28.7051 22.3769 28.7051ZM26.5253 28.7109H29.496C29.6367 28.7109 29.7539 28.5938 29.7539 28.4531V25.8105C29.7539 25.6699 29.6367 25.5527 29.496 25.5469H26.5253C26.3847 25.5469 26.2675 25.6641 26.2675 25.8047V28.4531C26.2675 28.5938 26.3847 28.7051 26.5253 28.7109ZM30.6328 28.7109H33.6035C33.7441 28.7109 33.8613 28.5938 33.8671 28.4531V25.8105C33.8671 25.6641 33.75 25.5469 33.6035 25.5469H30.6328C30.4921 25.5469 30.375 25.6641 30.375 25.8047V28.4531C30.375 28.5938 30.4863 28.7109 30.6328 28.7109ZM22.371 24.9023H25.3417C25.4824 24.9023 25.5996 24.7852 25.5996 24.6387V21.9961C25.5996 21.8555 25.4824 21.7383 25.3417 21.7383H22.371C22.2246 21.7383 22.1132 21.8555 22.1074 21.9961V24.6387C22.1132 24.7852 22.2304 24.9023 22.371 24.9023ZM26.5253 24.9023H29.496C29.6367 24.9023 29.7539 24.7852 29.7539 24.6387V21.9961C29.7539 21.8555 29.6367 21.7383 29.496 21.7383H26.5253C26.3847 21.7383 26.2675 21.8555 26.2675 21.9961V24.6387C26.2675 24.7852 26.3847 24.9023 26.5253 24.9023ZM30.6328 24.9023H33.6035C33.75 24.9023 33.8613 24.7852 33.8671 24.6387V21.9961C33.8671 21.8496 33.75 21.7383 33.6035 21.7383H30.6328C30.4921 21.7383 30.375 21.8555 30.375 21.9961V24.6387C30.375 24.7852 30.4863 24.9023 30.6328 24.9023ZM30.6328 21.0996H33.6035C33.75 21.0996 33.8671 20.9824 33.8671 20.8359V18.1875C33.8671 18.0469 33.75 17.9297 33.6035 17.9297H30.6328C30.4921 17.9297 30.375 18.0469 30.375 18.1875V20.8359C30.375 20.9824 30.4863 21.0996 30.6328 21.0996ZM34.7695 28.7109H37.7402C37.8808 28.7109 37.998 28.5938 37.998 28.4531V25.8105C37.998 25.6641 37.8808 25.5527 37.7402 25.5469H34.7695C34.6289 25.5469 34.5117 25.6641 34.5117 25.8047V28.4531C34.5117 28.5938 34.6289 28.7109 34.7695 28.7109Z" fill="white"/>
</g>
<defs>
<clipPath id="clip0_308_17">
<rect width="60" height="60" fill="white"/>
</clipPath>
</defs>
</svg>
