<svg width="60" height="60" viewBox="0 0 60 60" fill="none" xmlns="http://www.w3.org/2000/svg">
<g clip-path="url(#clip0_68_36)">
<mask id="mask0_68_36" style="mask-type:luminance" maskUnits="userSpaceOnUse" x="0" y="0" width="60" height="60">
<path d="M60 0H0V60H60V0Z" fill="white"/>
</mask>
<g mask="url(#mask0_68_36)">
<path d="M30 30C30 27.3478 31.5804 24.8043 34.3934 22.9289C37.2065 21.0536 41.0217 20 45 20C48.9783 20 52.7935 21.0536 55.6066 22.9289C58.4196 24.8043 60 27.3478 60 30C60 32.6522 58.4196 35.1957 55.6066 37.0711C52.7935 38.9464 48.9783 40 45 40C41.0217 40 37.2065 38.9464 34.3934 37.0711C31.5804 35.1957 30 32.6522 30 30Z" fill="#1ABCFE"/>
<path d="M0 50C0 47.3478 1.58035 44.8043 4.39341 42.9289C7.20644 41.0536 11.0217 40 15 40H30V50C30 52.6522 28.4196 55.1957 25.6066 57.0711C22.7935 58.9464 18.9783 60 15 60C11.0217 60 7.20644 58.9464 4.39341 57.0711C1.58035 55.1957 0 52.6522 0 50Z" fill="#0ACF83"/>
<path d="M30 0V20H45C48.9783 20 52.7935 18.9464 55.6066 17.0711C58.4196 15.1957 60 12.6522 60 10C60 7.34783 58.4196 4.80429 55.6066 2.92894C52.7935 1.05357 48.9783 0 45 0H30Z" fill="#FF7262"/>
<path d="M0 10C0 12.6522 1.58035 15.1957 4.39341 17.0711C7.20644 18.9464 11.0217 20 15 20H30V0H15C11.0217 0 7.20644 1.05357 4.39341 2.92894C1.58035 4.80429 0 7.34783 0 10Z" fill="#F24E1E"/>
<path d="M0 30C0 32.6522 1.58035 35.1957 4.39341 37.0711C7.20644 38.9464 11.0217 40 15 40H30V20H15C11.0217 20 7.20644 21.0536 4.39341 22.9289C1.58035 24.8043 0 27.3478 0 30Z" fill="#A259FF"/>
</g>
</g>
<defs>
<clipPath id="clip0_68_36">
<rect width="60" height="60" fill="white"/>
</clipPath>
</defs>
</svg>
