<svg width="60" height="60" viewBox="0 0 60 60" fill="none" xmlns="http://www.w3.org/2000/svg">
<path d="M53.5714 3.75H6.42857C2.87946 3.75 0 6.26953 0 9.375V50.625C0 53.7305 2.87946 56.25 6.42857 56.25H53.5714C57.1205 56.25 60 53.7305 60 50.625V9.375C60 6.26953 57.1205 3.75 53.5714 3.75ZM32.6518 44.6953C32.6518 49.8047 29.2232 52.1367 24.2277 52.1367C19.7143 52.1367 17.1027 50.0977 15.7634 47.625L20.3571 45.1992C21.2411 46.5703 22.0446 47.7305 23.9866 47.7305C25.8348 47.7305 27.0134 47.0977 27.0134 44.625V27.8555H32.6518V44.6953ZM45.9911 52.1367C40.7545 52.1367 37.3661 49.957 35.7188 47.0977L40.3125 44.7773C41.5179 46.5 43.0982 47.7773 45.8705 47.7773C48.2009 47.7773 49.7009 46.7578 49.7009 45.3398C49.7009 43.6523 48.1741 43.0547 45.5893 42.0586L44.183 41.5312C40.1116 40.0195 37.4196 38.1094 37.4196 34.0898C37.4196 30.3867 40.6473 27.5742 45.6696 27.5742C49.2589 27.5742 51.8304 28.6641 53.6786 31.5234L49.2857 33.9844C48.3214 32.4727 47.2768 31.875 45.6562 31.875C44.0089 31.875 42.9643 32.7891 42.9643 33.9844C42.9643 35.4609 44.0089 36.0586 46.433 36.9844L47.8393 37.5117C52.6339 39.3047 55.3259 41.1445 55.3259 45.2695C55.3259 49.6992 51.3348 52.1367 45.9911 52.1367Z" fill="#F0D53C"/>
</svg>
