<svg width="60" height="60" viewBox="0 0 60 60" fill="none" xmlns="http://www.w3.org/2000/svg">
<path fill-rule="evenodd" clip-rule="evenodd" d="M34.7728 0.995361C34.3625 0.995361 33.9815 1.08638 33.6298 1.20774C34.3772 1.7235 34.7875 2.40614 34.9926 3.17979C35.0073 3.28598 35.0366 3.36183 35.0513 3.46801C35.066 3.55903 35.0805 3.65005 35.0805 3.74107C35.1392 5.076 34.7435 5.24286 34.4651 6.03169C34.0401 7.04806 34.1573 8.14027 34.6702 9.02011C34.7142 9.1263 34.7728 9.24765 34.8461 9.35384C34.2892 5.51592 37.3812 4.93947 37.9527 3.74107C37.9967 2.69436 37.1614 1.99656 36.502 1.51113C35.8719 1.11672 35.3004 0.995361 34.7728 0.995361ZM39.4328 1.86003C39.3741 2.20893 39.4181 2.11792 39.4035 2.29995C39.3888 2.42131 39.3888 2.57301 39.3742 2.69436C39.3449 2.81572 39.3155 2.93708 39.2716 3.05844C39.2423 3.17979 39.1983 3.30115 39.1544 3.4225C39.0957 3.54387 39.0518 3.65005 38.9932 3.77141C38.9492 3.83211 38.9199 3.89276 38.8759 3.95345C38.8467 3.99895 38.8173 4.04446 38.788 4.08997C38.7148 4.19616 38.6415 4.30235 38.5682 4.39336C38.4803 4.48438 38.407 4.59057 38.3044 4.66642V4.68161C38.2165 4.75746 38.1286 4.84848 38.026 4.92432C37.7183 5.16704 37.3666 5.34907 37.0442 5.57662C36.9416 5.65247 36.8391 5.71315 36.7511 5.80417C36.6486 5.88001 36.5606 5.95586 36.4727 6.04688C36.3701 6.1379 36.2969 6.22892 36.2089 6.3351C36.1357 6.42612 36.0477 6.53231 35.9891 6.6385C35.9159 6.74468 35.8426 6.85087 35.784 6.95706C35.7253 7.07841 35.6814 7.1846 35.6228 7.30596C35.5788 7.42731 35.5349 7.5335 35.5056 7.65486C35.4616 7.79139 35.4323 7.91275 35.403 8.03411C35.3883 8.09481 35.3883 8.17063 35.3737 8.23131C35.359 8.29201 35.359 8.35266 35.3444 8.41335C35.3444 8.5347 35.3297 8.67123 35.3297 8.79258C35.3297 8.8836 35.3297 8.97462 35.3444 9.06564C35.3444 9.187 35.3591 9.30835 35.3884 9.44488C35.403 9.56624 35.4323 9.68759 35.4616 9.80896C35.5056 9.93031 35.5349 10.0517 35.5789 10.173C35.6082 10.2489 35.6521 10.3247 35.6815 10.3854L32.3111 9.0353C31.7395 8.86843 31.1827 8.71674 30.6112 8.58021C30.3035 8.50437 29.9957 8.42851 29.688 8.35267C28.8088 8.17063 27.9149 8.03411 27.021 7.94309C26.9917 7.94309 26.977 7.9279 26.9477 7.9279C26.0685 7.83688 25.2039 7.79137 24.3247 7.79137C23.6799 7.79137 23.0351 7.82169 22.405 7.86722C21.5111 7.92792 20.6172 8.04926 19.7234 8.20095C19.5036 8.23127 19.2837 8.2768 19.0639 8.32231C18.6097 8.41332 18.17 8.51951 17.7451 8.6257C17.5253 8.68641 17.3055 8.74706 17.0857 8.80774C16.8659 8.89875 16.6607 9.00495 16.4555 9.09596C16.2943 9.17181 16.1332 9.24766 15.972 9.32351C15.9427 9.3387 15.9133 9.3387 15.8987 9.35383C15.7522 9.42967 15.6203 9.49035 15.4884 9.5662C15.4444 9.58139 15.4151 9.59651 15.3858 9.61171C15.2246 9.68756 15.0634 9.77857 14.9315 9.85442C14.829 9.89993 14.7264 9.96061 14.6385 10.0061C14.5945 10.0364 14.5359 10.0668 14.5066 10.082C14.3747 10.1578 14.2428 10.2337 14.1256 10.3095C13.9937 10.3854 13.8765 10.4612 13.7739 10.5371C13.6713 10.6129 13.5687 10.6736 13.4808 10.7494C13.4661 10.7646 13.4515 10.7646 13.4368 10.7797C13.3489 10.8404 13.2463 10.9163 13.1584 10.9921C13.1584 10.9921 13.1437 11.0073 13.1291 11.0224C13.0559 11.0831 12.9826 11.1438 12.9093 11.2045C12.88 11.2197 12.8507 11.25 12.8214 11.2652C12.7481 11.3259 12.6749 11.4017 12.6016 11.4624C12.5869 11.4927 12.5576 11.5079 12.543 11.5231C12.455 11.6141 12.3671 11.6899 12.2792 11.781C12.2645 11.781 12.2645 11.7962 12.2499 11.8113C12.162 11.8871 12.0741 11.9781 11.9861 12.0692C11.9714 12.0844 11.9715 12.0995 11.9568 12.0995C11.8836 12.1753 11.8103 12.2512 11.737 12.3422C11.7077 12.3725 11.6638 12.4029 11.6345 12.4332C11.5612 12.5242 11.4733 12.6153 11.3853 12.7063C11.3707 12.7366 11.3414 12.7518 11.3267 12.7821C11.2095 12.9035 11.1069 13.0248 10.9897 13.1462C10.975 13.1614 10.9604 13.1765 10.9457 13.1917C10.7112 13.4496 10.4621 13.7075 10.1984 13.935C9.93459 14.1777 9.65616 14.4053 9.37774 14.6025C9.08466 14.8149 8.80624 14.9969 8.4985 15.1789C8.20542 15.3458 7.89769 15.4975 7.57531 15.634C7.26757 15.7705 6.94519 15.8919 6.62281 15.9981C6.00734 16.1346 5.37722 16.3925 4.83503 16.438C4.7178 16.438 4.58591 16.4683 4.46868 16.4835C4.3368 16.5138 4.21957 16.5442 4.10234 16.5745C3.98511 16.62 3.86787 16.6655 3.75064 16.7111C3.63341 16.7566 3.51618 16.8172 3.39895 16.8779C3.29637 16.9538 3.17914 17.0145 3.07656 17.0903C2.97399 17.1661 2.87141 17.2572 2.78349 17.3482C2.68091 17.424 2.57833 17.5302 2.49041 17.6212C2.40248 17.7274 2.31456 17.8184 2.24129 17.9246C2.16802 18.046 2.0801 18.1522 2.02148 18.2735C1.94821 18.3797 1.87495 18.5011 1.81633 18.6224C1.75769 18.759 1.6991 18.8803 1.65514 19.0168C1.61118 19.1382 1.56721 19.2747 1.52325 19.4113C1.49397 19.5326 1.46461 19.654 1.44998 19.7753C1.44998 19.7905 1.43531 19.8056 1.43531 19.8208C1.40602 19.9574 1.40602 20.1394 1.39135 20.2304C1.37667 20.3366 1.36206 20.4276 1.36206 20.5338C1.36206 20.5945 1.36206 20.6703 1.37674 20.731C1.39141 20.8372 1.40602 20.9282 1.43538 21.0193C1.46466 21.1103 1.49401 21.2013 1.53795 21.2923V21.3075C1.58191 21.3985 1.64053 21.4895 1.69914 21.5805C1.75778 21.6716 1.81638 21.7626 1.88965 21.8536C1.96291 21.9295 2.05084 22.0205 2.13876 22.0963C2.22668 22.1873 2.31461 22.2632 2.41718 22.339C2.76888 22.6576 2.8568 22.7638 3.31107 23.0065C3.38434 23.052 3.45761 23.0823 3.54554 23.1279C3.56022 23.1279 3.57482 23.143 3.5895 23.143C3.5895 23.1734 3.5895 23.1886 3.60418 23.2189C3.61886 23.3403 3.64814 23.4616 3.67745 23.583C3.70673 23.7195 3.75072 23.8409 3.79468 23.947C3.83864 24.0381 3.86795 24.1291 3.91191 24.2201C3.92659 24.2504 3.9412 24.2808 3.95587 24.2959C4.01451 24.4173 4.0731 24.5235 4.13172 24.6297C4.20499 24.7359 4.27826 24.842 4.35153 24.9482C4.42479 25.0393 4.51272 25.1454 4.60064 25.2365C4.68857 25.3275 4.77649 25.4033 4.87907 25.4943C4.87907 25.4943 4.89375 25.5095 4.90835 25.5095C4.99628 25.5854 5.0842 25.6613 5.17213 25.7219C5.2747 25.7978 5.37728 25.8584 5.49451 25.9191C5.59709 25.9798 5.71432 26.0405 5.83155 26.086C5.91947 26.1315 6.02205 26.1618 6.12463 26.1922C6.13931 26.2074 6.15391 26.2074 6.18327 26.2225C6.2419 26.2377 6.31514 26.2528 6.37376 26.268C6.3298 27.0872 6.31512 27.8608 6.4324 28.1339C6.56428 28.4373 7.20905 27.5119 7.85383 26.4501C7.7659 27.4968 7.70729 28.7255 7.85383 29.0896C8.01502 29.4688 8.89425 28.2856 9.65626 26.981C20.0459 24.4932 29.5269 31.9263 30.5234 42.4237C30.3329 40.7854 28.3839 39.8752 27.49 40.1027C27.0504 41.2253 26.3031 42.6664 25.1015 43.5614C25.204 42.5602 25.1601 41.5287 24.9549 40.5275C24.6325 41.9231 24.0024 43.2277 23.1378 44.3502C21.7457 44.4564 20.3536 43.7586 19.6209 42.7119C19.5623 42.6664 19.5476 42.5754 19.5037 42.5147C19.4597 42.4085 19.4157 42.3023 19.3864 42.1961C19.3425 42.09 19.3132 41.9838 19.2985 41.8776C19.2838 41.7714 19.2838 41.6652 19.2838 41.5439C19.2838 41.468 19.2838 41.3922 19.2838 41.3163C19.2985 41.2101 19.3278 41.1039 19.3571 40.9977C19.3864 40.8916 19.4157 40.7854 19.4597 40.6792C19.5183 40.573 19.5623 40.4668 19.6355 40.3606C19.8846 39.6325 19.8846 39.0409 19.4304 38.692C19.3424 38.6313 19.2545 38.5858 19.1519 38.5403C19.0933 38.5251 19.0201 38.4947 18.9614 38.4796C18.9175 38.4644 18.8882 38.4492 18.8442 38.434C18.7416 38.4037 18.6391 38.3733 18.5365 38.3582C18.4339 38.3279 18.3313 38.3127 18.2288 38.3127C18.1262 38.2975 18.0089 38.2824 17.9064 38.2824C17.8331 38.2824 17.7598 38.2976 17.6866 38.2976C17.5693 38.2976 17.4667 38.3128 17.3642 38.3431C17.2616 38.3583 17.159 38.3734 17.0564 38.4038C16.9539 38.4341 16.8513 38.4645 16.7487 38.51C16.6461 38.5555 16.5582 38.601 16.4556 38.6465C16.3677 38.692 16.2798 38.7527 16.1772 38.7982C12.7628 41.104 14.7997 46.5044 17.1297 48.0668C16.2505 48.2337 15.3566 48.4309 15.1075 48.6281C15.0928 48.6433 15.0782 48.6584 15.0782 48.6584C15.7083 49.0528 16.3677 49.3866 17.0565 49.6748C17.9943 49.9934 18.9908 50.2816 19.4304 50.403V50.4181C20.6467 50.676 21.8776 50.767 23.1232 50.6912C29.6149 50.2209 34.9342 45.1088 35.9014 38.3734C35.9307 38.51 35.96 38.6313 35.9893 38.7678C36.0333 39.0409 36.0919 39.3291 36.1212 39.6173V39.6326C36.1505 39.7691 36.1651 39.9056 36.1798 40.027V40.0877C36.1945 40.2242 36.2091 40.3607 36.2091 40.4821C36.2238 40.6489 36.2384 40.8158 36.2384 40.9827V41.2254C36.2384 41.3012 36.2531 41.3923 36.2531 41.4681C36.2531 41.5591 36.2384 41.6501 36.2384 41.7412V41.9535C36.2384 42.0597 36.2237 42.1507 36.2237 42.2569C36.2237 42.3176 36.2237 42.3783 36.209 42.4541C36.209 42.5603 36.1943 42.6665 36.1943 42.7879C36.1797 42.8334 36.1797 42.8789 36.1797 42.9244C36.165 43.0458 36.1504 43.1519 36.1357 43.2733C36.1357 43.3188 36.1357 43.3643 36.121 43.4098C36.1063 43.5615 36.0771 43.6981 36.0624 43.8497V43.865V43.8801C36.0331 44.0167 36.0037 44.1684 35.9745 44.3049V44.3504C35.9452 44.4869 35.9158 44.6235 35.8865 44.76C35.8865 44.7752 35.8719 44.8055 35.8719 44.8207C35.8426 44.9572 35.8132 45.0937 35.7693 45.2303V45.2758C35.7253 45.4275 35.6814 45.564 35.6521 45.7005C35.6374 45.7157 35.6374 45.7308 35.6374 45.7308C35.5934 45.8825 35.5495 46.0342 35.5055 46.1859C35.4469 46.3376 35.4029 46.4741 35.3443 46.6258C35.2857 46.7775 35.2417 46.9292 35.1831 47.0658C35.1245 47.2175 35.0659 47.354 35.0073 47.5057H34.9926C34.9339 47.6422 34.8753 47.7939 34.8021 47.9304C34.7874 47.9759 34.7728 48.0063 34.7581 48.0366C34.7434 48.0518 34.7434 48.0669 34.7288 48.0821C33.7763 50.0694 32.3695 51.8139 30.6111 53.1791C30.4938 53.255 30.3766 53.346 30.2594 53.437C30.2301 53.4673 30.1861 53.4825 30.1568 53.5129C30.0542 53.5887 29.9517 53.6646 29.8344 53.7404L29.8784 53.8314H29.8931C30.0982 53.8011 30.3034 53.7707 30.5085 53.7404H30.5232C30.9042 53.6797 31.2852 53.6039 31.6662 53.528C31.7688 53.5128 31.886 53.4825 31.9886 53.4522C32.0619 53.437 32.1205 53.4219 32.1937 53.4067C32.2963 53.3915 32.3989 53.3612 32.5015 53.346C32.5894 53.3157 32.6773 53.3005 32.7652 53.2701C34.2306 52.9061 35.6521 52.4055 37.0149 51.8138C34.6849 55.1057 31.5636 57.7603 27.9148 59.5049C29.6 59.3835 31.2852 59.0953 32.9118 58.6099C38.8173 56.8047 43.785 52.6937 46.7597 47.1568C46.1589 50.6609 44.8107 53.9983 42.8178 56.9108C44.2392 55.94 45.5434 54.8174 46.7304 53.5432C50.0129 49.9935 52.167 45.4881 52.8997 40.649C53.3979 43.0458 53.5445 45.5184 53.3246 47.9607C63.9048 32.6849 54.2039 16.8478 50.1448 12.6761C50.1301 12.6458 50.1155 12.6306 50.1155 12.6003C50.1008 12.6155 50.1008 12.6155 50.1008 12.6306C50.1008 12.6154 50.1008 12.6154 50.0861 12.6003C50.0861 12.7823 50.0714 12.9643 50.0568 13.1464C50.0129 13.4953 49.9689 13.829 49.9103 14.1628C49.837 14.4965 49.7491 14.8302 49.6612 15.164C49.5586 15.4825 49.4414 15.8162 49.3095 16.1348C49.1776 16.4382 49.031 16.7568 48.8699 17.0602C48.7087 17.3484 48.5328 17.6518 48.3423 17.9248C48.1518 18.2131 47.9467 18.4861 47.7415 18.744C47.5217 19.017 47.2872 19.2598 47.0528 19.5025C46.9062 19.639 46.7743 19.7604 46.6278 19.8817C46.5106 19.9879 46.408 20.0789 46.2908 20.1851C46.027 20.3975 45.7632 20.5947 45.4701 20.7767C45.1917 20.9588 44.8987 21.1408 44.6056 21.2925C44.2978 21.4442 43.9901 21.5807 43.6824 21.7172C43.3746 21.8386 43.0523 21.9448 42.7299 22.0358C42.4075 22.1268 42.0704 22.2027 41.7481 22.2633C41.411 22.3241 41.074 22.3544 40.7516 22.3847C40.5171 22.3999 40.2827 22.415 40.0482 22.415C39.7112 22.415 39.3741 22.3847 39.0517 22.3543C38.7147 22.324 38.3777 22.2785 38.0553 22.2026C37.7182 22.1419 37.3959 22.0509 37.0735 21.9447H37.0588C37.3812 21.9144 37.7036 21.884 38.026 21.8234C38.363 21.7627 38.6854 21.6869 39.0078 21.5958C39.3301 21.5048 39.6525 21.3986 39.9603 21.2773C40.2827 21.1559 40.5904 21.0042 40.8835 20.8525C41.1912 20.7008 41.4696 20.534 41.7627 20.3519C42.0411 20.1547 42.3195 19.9575 42.5833 19.7451C42.8471 19.5328 43.0962 19.3052 43.3307 19.0625C43.5798 18.835 43.7996 18.5771 44.0194 18.3192C44.2392 18.0461 44.4444 17.7731 44.6349 17.5C44.6641 17.4545 44.6935 17.3938 44.7228 17.3483C44.8693 17.1056 45.0159 16.8629 45.1477 16.6202C45.3089 16.3168 45.4555 16.0134 45.5874 15.6948C45.7192 15.3763 45.8365 15.0577 45.9391 14.724C46.0416 14.4054 46.1149 14.0717 46.1882 13.738C46.2468 13.3891 46.3054 13.0553 46.3347 12.7216C46.364 12.3727 46.3933 12.0238 46.3933 11.6901C46.3933 11.4473 46.3787 11.2046 46.3641 10.9619C46.3348 10.613 46.2908 10.2793 46.2468 9.94554C46.1882 9.59664 46.1149 9.26291 46.027 8.92917C45.9245 8.61061 45.8219 8.27688 45.7046 7.95832C45.5874 7.63975 45.4409 7.32119 45.2943 7.0178C45.1331 6.7144 44.9719 6.41101 44.7961 6.12279C44.6056 5.83457 44.4151 5.56151 44.2099 5.28846C43.9901 5.03057 43.7703 4.77269 43.5359 4.51481C43.4186 4.39345 43.2867 4.25692 43.1549 4.13557C42.4954 3.60463 41.8067 3.10403 41.118 2.64894C41.0154 2.58824 40.9275 2.54275 40.8249 2.49724C40.3413 2.17868 39.887 2.01172 39.4328 1.86003Z" fill="#E0234E"/>
</svg>
