<svg width="150" height="150" viewBox="0 0 150 150" fill="none" xmlns="http://www.w3.org/2000/svg">
<g clip-path="url(#clip0_32_58)">
<path d="M75 149.722C72.6708 149.722 70.4969 149.171 68.4783 148.209L47.8261 137.342C44.7205 135.829 46.2733 135.279 47.205 135.004C51.3975 133.766 52.1739 133.491 56.5217 131.29C56.9876 131.015 57.6087 131.153 58.0745 131.428L73.913 139.818C74.5342 140.093 75.3106 140.093 75.7764 139.818L137.733 108.044C138.354 107.769 138.665 107.219 138.665 106.531V43.1215C138.665 42.4337 138.354 41.8836 137.733 41.6085L75.7764 9.97228C75.1553 9.69718 74.3789 9.69718 73.913 9.97228L11.9565 41.6085C11.3354 41.8836 11.0248 42.5713 11.0248 43.1215V106.531C11.0248 107.082 11.3354 107.769 11.9565 108.044L28.882 116.71C38.0435 120.836 43.7888 116.022 43.7888 111.208V48.6234C43.7888 47.7981 44.5652 46.9729 45.6522 46.9729H53.5714C54.5031 46.9729 55.4348 47.6606 55.4348 48.6234V111.208C55.4348 122.074 48.7578 128.402 37.1118 128.402C33.5404 128.402 30.7453 128.402 22.8261 124.963L6.52174 116.71C2.48447 114.647 0 110.795 0 106.669V43.259C0 39.1326 2.48447 35.2812 6.52174 33.218L68.4783 1.44426C72.3602 -0.48142 77.6397 -0.48142 81.5217 1.44426L143.478 33.218C147.516 35.2812 150 39.1326 150 43.259V106.669C150 110.795 147.516 114.647 143.478 116.71L81.5217 148.484C79.5031 149.309 77.1739 149.722 75 149.722ZM94.0994 106.119C66.9255 106.119 61.3354 95.1149 61.3354 85.7616C61.3354 84.9363 62.1118 84.111 63.1988 84.111H71.2733C72.205 84.111 72.9814 84.6612 72.9814 85.4865C74.2236 92.7765 77.795 96.3528 94.2547 96.3528C107.298 96.3528 112.888 93.7394 112.888 87.5497C112.888 83.9734 111.335 81.36 90.9938 79.5719C74.0683 78.0588 63.5093 74.7577 63.5093 62.7909C63.5093 51.6495 74.0683 45.0472 91.7702 45.0472C111.646 45.0472 121.429 51.0993 122.671 64.304C122.671 64.7166 122.516 65.1293 122.205 65.5419C121.894 65.817 121.429 66.0921 120.963 66.0921H112.888C112.112 66.0921 111.335 65.5419 111.18 64.8542C109.317 57.289 104.503 54.8131 91.7702 54.8131C77.4845 54.8131 75.7764 59.2147 75.7764 62.5158C75.7764 66.5048 77.795 67.7427 97.0497 69.9435C116.149 72.1443 125.155 75.3079 125.155 87.1371C125 99.2413 113.82 106.119 94.0994 106.119Z" fill="#539E43"/>
</g>
<defs>
<clipPath id="clip0_32_58">
<rect width="150" height="150" fill="white"/>
</clipPath>
</defs>
</svg>
