<svg width="60" height="60" viewBox="0 0 60 60" fill="none" xmlns="http://www.w3.org/2000/svg">
<g clip-path="url(#clip0_307_13)">
<path d="M54.4476 45.5843L33.8711 1.88707C33.3502 0.791489 32.2706 0.0696569 31.0591 0.00696475C29.8449 -0.0743932 28.6861 0.52631 28.0528 1.5655L5.73525 37.7124C5.04242 38.8266 5.05699 40.2412 5.77265 41.3409L16.6839 58.238C17.5316 59.5406 19.1353 60.1304 20.6251 59.6873L52.2893 50.3212C53.2539 50.0392 54.0489 49.3528 54.4685 48.4396C54.8825 47.5308 54.8754 46.4859 54.4491 45.5828L54.4476 45.5843ZM49.8408 47.4584L22.9718 55.4036C22.1522 55.6474 21.3654 54.937 21.5359 54.1098L31.1354 8.14513C31.3149 7.2851 32.5025 7.14899 32.8779 7.9447L50.6485 45.6815C50.8075 46.0218 50.8094 46.4147 50.6537 46.7566C50.498 47.0984 50.2004 47.3549 49.8393 47.4584H49.8408Z" fill="black"/>
</g>
<defs>
<clipPath id="clip0_307_13">
<rect width="60" height="60" fill="white"/>
</clipPath>
</defs>
</svg>
