<svg width="150" height="150" viewBox="0 0 150 150" fill="none" xmlns="http://www.w3.org/2000/svg">
<g clip-path="url(#clip0_32_47)">
<path d="M123.329 48.5683C121.733 47.9534 120.123 47.3837 118.501 46.8598C118.774 45.6098 119.024 44.3749 119.247 43.1617C122.902 23.24 120.513 7.19067 112.351 1.90646C104.526 -3.15933 91.7287 2.12291 78.8041 14.7525C77.5303 15.9994 76.2848 17.2823 75.0688 18.5999C74.2547 17.7237 73.4262 16.8646 72.5838 16.0229C59.0382 2.51897 45.4609 -3.17248 37.3082 2.12686C29.4901 7.20844 27.1751 22.2959 30.4657 41.1762C30.7931 43.0461 31.1627 44.9063 31.5743 46.7551C29.6524 47.3683 27.7979 48.0209 26.0231 48.7157C10.1419 54.9328 0 64.6755 0 74.7815C0 85.219 10.8878 95.688 27.4288 102.036C28.7698 102.549 30.1219 103.024 31.484 103.46C31.0417 105.452 30.6489 107.456 30.3063 109.472C27.1692 128.025 29.619 142.756 37.416 147.805C45.4691 153.02 58.9855 147.66 72.1461 134.743C73.2133 133.692 74.257 132.613 75.2762 131.504C76.5931 132.931 77.9452 134.316 79.3309 135.658C92.0796 147.975 104.67 152.949 112.46 147.885C120.505 142.656 123.12 126.831 119.725 107.578C119.458 106.069 119.158 104.568 118.826 103.076C119.775 102.76 120.707 102.435 121.615 102.097C138.811 95.7005 149.999 85.3584 149.999 74.7815C149.999 64.6387 139.53 54.8301 123.329 48.5683ZM119.6 95.2683C118.779 95.5729 117.938 95.867 117.08 96.1532C115.182 89.4052 112.62 82.2301 109.485 74.8163C112.477 67.5795 114.94 60.4959 116.785 53.792C118.32 54.2907 119.808 54.8163 121.244 55.3709C135.125 60.7367 143.591 68.669 143.591 74.7815C143.591 81.292 134.447 89.744 119.6 95.2683ZM113.439 108.975C114.94 117.488 115.154 125.185 114.16 131.203C113.267 136.61 111.471 140.215 109.249 141.659C104.522 144.731 94.4128 140.738 83.5103 130.204C82.2215 128.956 80.9638 127.668 79.7387 126.342C83.9656 121.152 88.1896 115.118 92.3122 108.417C99.5638 107.695 106.415 106.513 112.627 104.901C112.926 106.251 113.197 107.61 113.439 108.975ZM51.138 141.128C46.5197 142.959 42.8412 143.012 40.6176 141.572C35.8862 138.508 33.9192 126.68 36.6022 110.814C36.9211 108.94 37.2863 107.075 37.6973 105.223C43.8414 106.749 50.6423 107.847 57.9108 108.508C62.0616 115.066 66.4075 121.093 70.7873 126.37C69.8566 127.382 68.9037 128.367 67.9297 129.326C62.1097 135.037 56.2779 139.09 51.138 141.128ZM29.5018 95.2282C22.1876 92.4209 16.1472 88.7729 12.007 84.792C8.28629 81.215 6.40837 77.663 6.40837 74.7815C6.40837 68.6486 14.5511 60.8262 28.1325 55.5098C29.7807 54.865 31.5057 54.2565 33.2957 53.6854C35.1731 60.5407 37.6352 67.7084 40.6064 74.9565C37.5965 82.3117 35.0992 89.594 33.2037 96.5302C31.9605 96.1303 30.7261 95.6962 29.5018 95.2282ZM36.7545 39.794C33.9356 23.6183 35.8076 11.4163 40.5191 8.35383C45.5371 5.09199 56.6335 9.74265 68.3294 21.4032C69.092 22.1653 69.8423 22.9428 70.5799 23.7354C66.2217 28.99 61.9157 34.9723 57.8019 41.4907C50.7472 42.2249 43.9943 43.4038 37.7858 44.9834C37.4032 43.2638 37.0594 41.533 36.7545 39.794ZM101.458 57.7334C99.9911 54.8893 98.4702 52.081 96.896 49.3104C101.682 49.99 106.267 50.892 110.573 51.9946C109.281 56.6473 107.67 61.5111 105.773 66.4979C104.387 63.5445 102.948 60.6224 101.458 57.7334ZM75.0717 28.8775C78.0272 32.4729 80.9873 36.4867 83.8988 40.842C77.9926 40.5288 72.0765 40.5275 66.1702 40.838C69.0846 36.5229 72.07 32.5144 75.0717 28.8775ZM48.5166 57.7828C47.0449 60.6485 45.633 63.5523 44.282 66.492C42.4164 61.5229 40.8197 56.6367 39.516 51.9183C43.7957 50.8433 48.3595 49.9644 53.115 49.2973C51.5232 52.0847 49.99 54.9145 48.5166 57.7828ZM53.2515 100.778C48.3384 100.162 43.706 99.3282 39.4275 98.2821C40.7518 93.4795 42.3836 88.4894 44.2896 83.4137C45.646 86.3555 47.0637 89.2612 48.5418 92.1282C50.0617 95.0755 51.6355 97.9624 53.2515 100.778ZM75.2487 121.192C72.2112 117.513 69.1819 113.443 66.2235 109.065C69.0958 109.191 72.0237 109.256 74.9996 109.256C78.057 109.256 81.0793 109.179 84.0541 109.03C81.1332 113.487 78.1842 117.563 75.2487 121.192ZM105.833 83.1545C107.838 88.2861 109.528 93.2499 110.87 97.9703C106.521 99.0848 101.825 99.9821 96.8778 100.649C98.4633 97.8266 99.9985 94.9694 101.483 92.0788C102.992 89.1407 104.442 86.1651 105.833 83.1545ZM95.9322 88.4841C93.66 92.9159 91.2601 97.2636 88.7363 101.52C84.1646 101.884 79.5828 102.064 74.9996 102.062C70.3315 102.062 65.7911 101.899 61.4188 101.58C58.8291 97.3333 56.3835 92.978 54.087 88.5236C51.8014 84.0927 49.6671 79.566 47.6875 74.9532C49.662 70.3393 51.7905 65.8104 54.0683 61.3762L54.0677 61.3769C56.3446 56.9415 58.7708 52.6048 61.3409 48.3762C65.8016 47.9973 70.376 47.7999 74.999 47.7999C79.6432 47.7999 84.224 47.9992 88.6836 48.3808C91.2277 52.6031 93.6384 56.9248 95.9111 61.338C98.1964 65.7625 100.353 70.2693 102.377 74.8512C100.374 79.48 98.224 84.0272 95.9322 88.4841ZM109.151 8.13936C114.173 11.392 116.127 24.5084 112.971 41.7091C112.77 42.8065 112.543 43.9242 112.297 45.0578C106.074 43.4446 99.3159 42.2453 92.2408 41.4999C88.1193 34.9098 83.8484 28.9183 79.5611 23.7315C80.6847 22.5154 81.8351 21.3308 83.0111 20.1788C94.0853 9.35844 104.435 5.08607 109.151 8.13936ZM74.9996 59.742C82.3971 59.742 88.3941 66.4755 88.3941 74.7815C88.3941 83.0874 82.3971 89.8209 74.9996 89.8209C67.6022 89.8209 61.6052 83.0874 61.6052 74.7815C61.6052 66.4755 67.6022 59.742 74.9996 59.742Z" fill="#00D8FF"/>
</g>
<defs>
<clipPath id="clip0_32_47">
<rect width="150" height="150" fill="white"/>
</clipPath>
</defs>
</svg>
