<svg width="60" height="60" viewBox="0 0 60 60" fill="none" xmlns="http://www.w3.org/2000/svg">
<path d="M30 34.6387C32.5888 34.6387 34.6875 32.54 34.6875 29.9512C34.6875 27.3623 32.5888 25.2637 30 25.2637C27.4112 25.2637 25.3125 27.3623 25.3125 29.9512C25.3125 32.54 27.4112 34.6387 30 34.6387Z" fill="#007ACC"/>
<path d="M30 40.6986C24.3659 40.8349 18.7459 40.0755 13.35 38.4486C10.8574 37.6585 8.53263 36.4138 6.49313 34.7774C5.71487 34.2184 5.06676 33.4976 4.59327 32.6645C4.11977 31.8315 3.83211 30.9058 3.75 29.9511C3.75 26.8518 7.155 23.8143 12.8587 21.8268C18.3989 20.0657 24.1874 19.2122 30 19.2993C35.7351 19.2191 41.446 20.0572 46.9162 21.7818C49.3168 22.5471 51.5627 23.7316 53.55 25.2805C54.315 25.8135 54.9533 26.5081 55.4199 27.3153C55.8865 28.1224 56.1699 29.0223 56.25 29.9511C56.25 33.1724 52.4438 36.4368 46.3125 38.4655C41.0211 40.0393 35.5197 40.7925 30 40.6986ZM30 21.5418C24.439 21.4674 18.9015 22.2788 13.5956 23.9455C8.34562 25.7774 5.9925 28.2824 5.9925 29.9455C5.9925 31.6855 8.52188 34.4211 14.0756 36.3205C19.2376 37.869 24.6124 38.5898 30 38.4561C35.2808 38.5506 40.5449 37.836 45.6094 36.3374C51.375 34.4268 54 31.6874 54 29.9511C53.9054 29.3553 53.6883 28.7856 53.3623 28.2779C53.0364 27.7703 52.6087 27.3357 52.1063 27.0018C50.3283 25.6277 48.3219 24.5778 46.1794 23.9005C40.9463 22.2576 35.4843 21.4613 30 21.5418Z" fill="#007ACC"/>
<path d="M19.35 53.3306C18.4753 53.3507 17.6109 53.1385 16.845 52.7156C14.16 51.1669 13.23 46.7006 14.3569 40.7663C15.5993 35.0871 17.7521 29.6462 20.7319 24.6544C23.527 19.6465 27.1053 15.118 31.3312 11.2406C33.1934 9.54321 35.3416 8.18915 37.6763 7.24126C38.5207 6.84552 39.4418 6.64038 40.3744 6.64038C41.3069 6.64038 42.2281 6.84552 43.0725 7.24126C45.8644 8.85001 46.7888 13.7775 45.4856 20.1019C44.2048 25.4729 42.1079 30.6158 39.2681 35.3513C36.5714 40.3001 33.1057 44.7891 29.0006 48.6506C27.0708 50.4146 24.8313 51.8062 22.395 52.755C21.4197 53.117 20.3902 53.3116 19.35 53.3306ZM22.6744 25.7681C19.8321 30.5481 17.7687 35.7501 16.5619 41.1788C15.525 46.6444 16.5206 49.9313 17.9681 50.7675C19.4681 51.6356 23.1094 50.8125 27.5306 46.95C31.4494 43.2505 34.7573 38.9535 37.3313 34.2188C40.0518 29.6916 42.0632 24.7747 43.2956 19.6388C44.5219 13.6856 43.4625 10.0406 41.9588 9.17439C41.3951 8.95844 40.7929 8.86177 40.19 8.89049C39.5871 8.91921 38.9968 9.0727 38.4563 9.34126C36.3782 10.1988 34.4676 11.4162 32.8125 12.9375C28.775 16.6515 25.3569 20.9868 22.6875 25.7794L22.6744 25.7681Z" fill="#007ACC"/>
<path d="M40.6443 53.355C38.1037 53.355 34.8768 51.8175 31.5168 48.9281C27.2169 45.0155 23.578 40.4332 20.7412 35.3587C17.7988 30.4356 15.6631 25.0735 14.415 19.4756C13.8737 17.0127 13.7734 14.4734 14.1187 11.9756C14.1986 11.049 14.4807 10.1512 14.9453 9.34545C15.4098 8.53975 16.0455 7.84577 16.8075 7.31246C19.5956 5.69809 24.3262 7.35746 29.1543 11.6437C33.1679 15.4353 36.5763 19.82 39.2606 24.645C42.2011 29.4531 44.3593 34.6978 45.6543 40.1831C46.2189 42.7363 46.306 45.3719 45.9112 47.9568C45.8173 48.9101 45.5183 49.8318 45.0348 50.6587C44.5513 51.4856 43.8947 52.1981 43.11 52.7475C42.3565 53.1651 41.5055 53.3747 40.6443 53.355ZM22.6818 34.23C25.4033 39.0795 28.8793 43.465 32.9793 47.2218C37.1962 50.85 40.5412 51.63 41.9793 50.7843C43.4793 49.9125 44.5856 46.3537 43.4456 40.5956C42.1966 35.3586 40.1266 30.3523 37.3125 25.7625C34.7509 21.1446 31.4976 16.9459 27.6656 13.3125C23.1206 9.27746 19.4343 8.37559 17.9325 9.24559C17.4644 9.62599 17.0802 10.0993 16.8043 10.6357C16.5284 11.1721 16.3666 11.7598 16.3293 12.3618C16.0312 14.5895 16.1283 16.8523 16.6162 19.0462C17.8168 24.3996 19.8651 29.5267 22.6837 34.2337L22.6818 34.23Z" fill="#007ACC"/>
</svg>
