<svg width="60" height="60" viewBox="0 0 60 60" fill="none" xmlns="http://www.w3.org/2000/svg">
<path fill-rule="evenodd" clip-rule="evenodd" d="M30 15.09C23.3325 15.09 19.1675 18.4025 17.5 25.03C20 21.7175 22.9175 20.475 26.25 21.3025C28.1525 21.775 29.5125 23.1475 31.015 24.665C33.4675 27.1375 36.305 30 42.5 30C49.1675 30 53.3325 26.6875 55 20.06C52.5 23.3725 49.585 24.615 46.25 23.7875C44.3475 23.315 42.9875 21.9425 41.4825 20.425C39.0325 17.95 36.1975 15.09 30 15.09ZM17.5 30C10.8325 30 6.6675 33.3125 5 39.94C7.5 36.625 10.4175 35.385 13.75 36.2125C15.6525 36.685 17.0125 38.0575 18.5175 39.575C20.9675 42.0475 23.805 44.91 30.0025 44.91C36.67 44.91 40.835 41.5975 42.5025 34.97C40.0025 38.2825 37.085 39.525 33.7525 38.6975C31.85 38.225 30.49 36.8525 28.9875 35.335C26.5325 32.8625 23.695 30 17.5 30Z" fill="#38BDF8"/>
</svg>
