<svg width="150" height="150" viewBox="0 0 150 150" fill="none" xmlns="http://www.w3.org/2000/svg">
<g clip-path="url(#clip0_32_55)">
<path d="M138.281 0H11.7188C5.24666 0 0 5.24666 0 11.7188V138.281C0 144.753 5.24666 150 11.7188 150H138.281C144.753 150 150 144.753 150 138.281V11.7188C150 5.24666 144.753 0 138.281 0Z" fill="#3178C6"/>
<path fill-rule="evenodd" clip-rule="evenodd" d="M88.1941 117.466V133.649C90.8262 134.998 93.9393 136.01 97.5328 136.684C101.126 137.358 104.914 137.695 108.896 137.695C112.776 137.695 116.463 137.324 119.955 136.583C123.447 135.841 126.51 134.619 129.141 132.916C131.773 131.214 133.857 128.988 135.393 126.24C136.928 123.493 137.695 120.096 137.695 116.05C137.695 113.117 137.256 110.546 136.379 108.337C135.502 106.129 134.237 104.165 132.583 102.446C130.93 100.726 128.947 99.184 126.636 97.8182C124.325 96.4529 121.718 95.1633 118.816 93.9498C116.69 93.0727 114.784 92.2219 113.096 91.3957C111.41 90.5695 109.975 89.727 108.795 88.8668C107.613 88.0072 106.702 87.0967 106.061 86.1357C105.42 85.1748 105.1 84.0879 105.1 82.8738C105.1 81.7611 105.386 80.7586 105.96 79.865C106.533 78.9715 107.344 78.2045 108.39 77.5641C109.436 76.9231 110.718 76.4262 112.236 76.0717C113.754 75.7178 115.442 75.5408 117.298 75.5408C118.648 75.5408 120.073 75.6422 121.574 75.8443C123.076 76.0465 124.586 76.3582 126.105 76.7801C127.623 77.2014 129.099 77.7322 130.533 78.3732C131.967 79.0137 133.292 79.7555 134.507 80.598V65.4768C132.043 64.5328 129.352 63.8332 126.434 63.3779C123.515 62.9227 120.166 62.6953 116.387 62.6953C112.54 62.6953 108.896 63.1084 105.454 63.9346C102.012 64.7602 98.9836 66.0498 96.3686 67.8029C93.7535 69.5566 91.6869 71.7902 90.1682 74.5043C88.65 77.2184 87.8906 80.4633 87.8906 84.2396C87.8906 89.0607 89.2822 93.174 92.0666 96.5795C94.8504 99.9844 99.0762 102.867 104.745 105.227C106.972 106.138 109.048 107.031 110.971 107.908C112.894 108.785 114.556 109.695 115.956 110.638C117.357 111.582 118.462 112.611 119.272 113.723C120.081 114.836 120.486 116.101 120.486 117.517C120.486 118.562 120.233 119.531 119.727 120.425C119.221 121.318 118.453 122.094 117.424 122.751C116.395 123.408 115.113 123.922 113.578 124.293C112.042 124.664 110.245 124.85 108.187 124.85C104.678 124.85 101.203 124.235 97.7607 123.004C94.3184 121.773 91.1297 119.927 88.1941 117.466ZM61.2199 77.1926H82.0312V63.8672H24.0234V77.1926H44.7332V136.523H61.2199V77.1926Z" fill="white"/>
</g>
<defs>
<clipPath id="clip0_32_55">
<rect width="150" height="150" fill="white"/>
</clipPath>
</defs>
</svg>
